<svg width="1350" height="200" viewBox="0 0 1350 200" fill="none" xmlns="http://www.w3.org/2000/svg">
<path d="M50 150H140V70H190V200H0V0H50V150Z" fill="#101114"/>
<path d="M260 200H210V50H120V130H70V0H260V200Z" fill="#101114"/>
<path d="M400 180H350V20H400V180Z" fill="#101114"/>
<path d="M530 100V20H580V180H530L470 100V180H420V20H470L530 100Z" fill="#101114"/>
<path d="M740 60H650V80H735V120H650V180H600V20H740V60Z" fill="#101114"/>
<path d="M810 180H760V20H810V180Z" fill="#101114"/>
<path d="M940 100V20H990V180H940L880 100V180H830V20H880L940 100Z" fill="#101114"/>
<path d="M1150 60H1060V80H1145V120H1060V140H1150V180H1010V20H1150V60Z" fill="#101114"/>
<path d="M1255 60L1285 20H1345L1285 100L1345 180H1285L1255 140L1225 180H1165L1225 100L1165 20H1225L1255 60Z" fill="#101114"/>
</svg>
